<svg width="354" height="330" viewBox="0 0 354 330" fill="none" xmlns="http://www.w3.org/2000/svg">
<path d="M123.337 72.238L169.68 98.1934L170.062 98.4078L170.325 98.0562L208.65 46.6952L219.861 95.9371L220.001 96.5531L220.569 96.2751L281.561 66.3862L253.714 120.057L253.353 120.752L254.135 120.787L314.539 123.506L258.158 161.382L257.634 161.735L258.097 162.164L295.136 196.494L231.494 204.004L231.058 204.056L231.053 204.494L230.36 257.606L184.017 231.65L183.635 231.436L183.372 231.787L145.047 283.148L133.836 233.906L133.696 233.29L133.128 233.568L72.136 263.457L99.9832 209.786L100.344 209.092L99.5619 209.057L39.1579 206.338L95.5387 168.461L96.0631 168.109L95.5998 167.679L58.5607 133.349L122.203 125.839L122.639 125.788L122.644 125.349L123.337 72.238Z" stroke="black"/>
</svg>
