<svg width="173" height="173" viewBox="0 0 173 173" fill="none" xmlns="http://www.w3.org/2000/svg">
<path d="M85.237 1.89792C85.8271 0.97691 87.1729 0.97691 87.763 1.89792L101.628 23.5362C102.324 24.6234 103.734 25.0013 104.881 24.408L127.707 12.601C128.679 12.0984 129.844 12.7713 129.895 13.8639L131.083 39.5355C131.142 40.8254 132.175 41.8576 133.464 41.9173L159.136 43.1052C160.229 43.1557 160.902 44.3212 160.399 45.2927L148.592 68.1189C147.999 69.2658 148.377 70.6758 149.464 71.3725L171.102 85.237C172.023 85.8271 172.023 87.1729 171.102 87.763L149.464 101.628C148.377 102.324 147.999 103.734 148.592 104.881L160.399 127.707C160.902 128.679 160.229 129.844 159.136 129.895L133.464 131.083C132.175 131.142 131.142 132.175 131.083 133.464L129.895 159.136C129.844 160.229 128.679 160.902 127.707 160.399L104.881 148.592C103.734 147.999 102.324 148.377 101.628 149.464L87.763 171.102C87.1729 172.023 85.8271 172.023 85.237 171.102L71.3725 149.464C70.6758 148.377 69.2658 147.999 68.1189 148.592L45.2927 160.399C44.3212 160.902 43.1557 160.229 43.1052 159.136L41.9173 133.464C41.8576 132.175 40.8254 131.142 39.5355 131.083L13.8639 129.895C12.7713 129.844 12.0984 128.679 12.601 127.707L24.408 104.881C25.0013 103.734 24.6234 102.324 23.5362 101.628L1.89792 87.763C0.97691 87.1729 0.97691 85.8271 1.89792 85.237L23.5362 71.3725C24.6234 70.6758 25.0013 69.2658 24.408 68.1189L12.601 45.2927C12.0984 44.3212 12.7713 43.1557 13.8639 43.1052L39.5355 41.9173C40.8254 41.8576 41.8576 40.8254 41.9173 39.5355L43.1052 13.8639C43.1557 12.7713 44.3212 12.0984 45.2927 12.601L68.1189 24.408C69.2658 25.0013 70.6758 24.6234 71.3725 23.5362L85.237 1.89792Z" fill="#FFFFB3" stroke="black"/>
</svg>
